<svg data-v-423bf9ae="" xmlns="http://www.w3.org/2000/svg" viewBox="0 0 430 90" class="iconLeftSlogan"><!----><!----><!----><g data-v-423bf9ae="" id="3c45f8f9-693a-451d-ab95-faa793545c05" fill="black" transform="matrix(5.167958809153992,0,0,5.167958809153992,143.41132650858015,-18.139536086100755)"><path d="M3.91 3.52Q3.39 3.50 2.94 3.63Q2.48 3.75 1.79 4.34Q1.11 4.94 0.86 5.93Q0.62 6.93 1.64 7.74L1.64 7.74Q0.07 9.06 0.41 10.71L0.41 10.71Q0.79 12.27 3.17 12.74L3.17 12.74Q5.77 11.18 6.14 9.85Q6.51 8.52 5.29 7.73L5.29 7.73L4.34 8.69Q5.53 9.50 5.09 10.55Q4.66 11.61 3.74 11.56Q2.82 11.50 1.79 10.64Q0.76 9.78 1.91 7.94L1.91 7.94Q2.60 8.14 2.94 8.18L2.94 8.18L3.87 7.17L3.75 7.02Q3.18 7.46 2.29 6.80Q1.40 6.14 1.56 5.47Q1.72 4.80 2.34 4.50Q2.97 4.20 3.70 4.48Q4.43 4.76 4.25 5.35L4.25 5.35L4.40 5.46L5.31 4.44Q5.22 4.16 4.82 3.85Q4.42 3.53 3.91 3.52ZM7.04 7.46Q7.63 6.99 7.52 9.16L7.52 9.16L7.55 12.44Q7.53 13.15 7.37 13.57Q7.20 13.99 6.23 14.88L6.23 14.88L6.39 15.12Q7.90 13.97 8.31 13.17Q8.72 12.37 8.67 11.26Q8.63 10.14 8.62 8.88Q8.61 7.63 8.60 7.24Q8.58 6.84 8.20 6.44L8.20 6.44L6.92 7.27L7.04 7.46ZM7.80 3.68L7.07 4.38Q7.62 4.68 7.74 5.35L7.74 5.35Q8.74 4.81 8.52 4.32Q8.30 3.83 7.80 3.68L7.80 3.68ZM12.43 6.54Q11.42 6.56 10.57 7.23Q9.73 7.90 10.15 8.74L10.15 8.74L11.27 8.07Q11.05 6.90 12.47 7.03Q13.90 7.15 13.71 8.89L13.71 8.89Q12.61 8.39 11.73 8.61Q10.85 8.82 10.11 9.71L10.11 9.71Q9.52 10.58 9.74 11.18Q9.95 11.79 10.44 12.23Q10.92 12.67 11.52 12.71Q12.11 12.76 12.52 12.48Q12.93 12.20 13.73 11.49L13.73 11.49Q13.79 12.36 14.29 12.76L14.29 12.76L15.40 11.80L15.31 11.64Q14.75 12.10 14.68 10.58L14.68 10.58L14.69 8.14Q14.66 7.23 14.05 6.88Q13.45 6.53 12.43 6.54ZM13.41 9.84L13.41 9.84L13.69 9.47L13.69 11.08Q12.82 11.95 12.20 11.90Q11.58 11.85 11.16 11.48Q10.73 11.12 10.54 10.64Q10.35 10.17 10.62 9.71Q10.88 9.26 11.67 9.19Q12.46 9.11 13.41 9.84ZM18.61 6.54Q17.60 6.56 16.75 7.23Q15.91 7.90 16.33 8.74L16.33 8.74L17.45 8.07Q17.23 6.90 18.65 7.03Q20.08 7.15 19.89 8.89L19.89 8.89Q18.79 8.39 17.91 8.61Q17.03 8.82 16.29 9.71L16.29 9.71Q15.70 10.58 15.92 11.18Q16.13 11.79 16.61 12.23Q17.10 12.67 17.69 12.71Q18.29 12.76 18.70 12.48Q19.11 12.20 19.91 11.49L19.91 11.49Q19.97 12.36 20.47 12.76L20.47 12.76L21.58 11.80L21.49 11.64Q20.92 12.10 20.86 10.58L20.86 10.58L20.87 8.14Q20.84 7.23 20.23 6.88Q19.63 6.53 18.61 6.54ZM19.59 9.84L19.59 9.84L19.87 9.47L19.87 11.08Q19.00 11.95 18.38 11.90Q17.76 11.85 17.34 11.48Q16.91 11.12 16.72 10.64Q16.53 10.17 16.80 9.71Q17.06 9.26 17.85 9.19Q18.63 9.11 19.59 9.84ZM22.68 6.50L22.00 7.53L22.08 7.68Q22.49 7.38 25.30 7.45L25.30 7.45Q22.31 11.59 21.83 12.55L21.83 12.55L21.96 12.65Q22.78 12.50 24.29 12.68Q25.81 12.87 26.15 12.49Q26.50 12.11 26.67 11.31L26.67 11.31Q25.95 11.86 23.15 11.44L23.15 11.44L26.41 6.69L26.29 6.50L22.68 6.50ZM33.17 3.60Q32.59 3.74 32.10 4.16Q31.62 4.59 31.25 5.09Q30.89 5.59 30.87 6.30Q30.86 7.01 31.33 7.49Q31.80 7.97 33.29 8.54Q34.77 9.11 34.82 9.93Q34.86 10.75 34.50 11.20Q34.15 11.66 33.50 11.62Q32.85 11.57 32.20 11.14Q31.54 10.71 31.26 10.07Q30.99 9.43 31.29 9.00L31.29 9.00L31.12 8.87L30.27 9.94Q30.27 10.58 30.64 11.21Q31.01 11.85 31.83 12.33Q32.65 12.80 33.46 12.65Q34.26 12.51 35.08 11.36Q35.90 10.21 35.85 9.42Q35.81 8.63 35.28 8.14Q34.75 7.65 33.37 7.23Q31.99 6.81 31.84 5.79Q31.68 4.78 32.36 4.58Q33.03 4.39 33.71 4.80Q34.39 5.21 34.25 5.72L34.25 5.72L34.36 5.80L35.30 4.92Q35.19 4.22 34.47 3.84Q33.76 3.46 33.17 3.60ZM37.78 3.51L36.74 4.14Q36.99 4.59 36.96 5.50L36.96 5.50Q36.93 11.40 37.05 11.88Q37.17 12.37 37.64 12.71L37.64 12.71L38.51 11.96Q38.14 11.46 38.07 10.78Q38.00 10.10 38.08 8.21L38.08 8.21Q38.98 7.25 40.11 7.23Q41.24 7.21 41.07 9.29L41.07 9.29Q41.04 11.34 41.17 11.82Q41.30 12.30 41.79 12.68L41.79 12.68L42.61 11.88Q42.22 11.82 42.12 11.01Q42.03 10.20 42.10 8.76L42.10 8.76Q42.14 7.88 41.95 7.35Q41.76 6.82 41.11 6.58Q40.46 6.33 39.85 6.50Q39.24 6.67 38.83 7.01Q38.42 7.36 38.10 7.55L38.10 7.55L38.08 4.85Q38.11 3.89 37.78 3.51L37.78 3.51ZM45.86 6.54Q44.84 6.56 43.99 7.23Q43.15 7.90 43.57 8.74L43.57 8.74L44.69 8.07Q44.47 6.90 45.89 7.03Q47.32 7.15 47.13 8.89L47.13 8.89Q46.03 8.39 45.15 8.61Q44.27 8.82 43.53 9.71L43.53 9.71Q42.94 10.58 43.16 11.18Q43.37 11.79 43.86 12.23Q44.34 12.67 44.94 12.71Q45.53 12.76 45.94 12.48Q46.35 12.20 47.15 11.49L47.15 11.49Q47.22 12.36 47.71 12.76L47.71 12.76L48.82 11.80L48.73 11.64Q48.17 12.10 48.10 10.58L48.10 10.58L48.11 8.14Q48.08 7.23 47.48 6.88Q46.87 6.53 45.86 6.54ZM46.83 9.84L46.83 9.84L47.11 9.47L47.11 11.08Q46.25 11.95 45.62 11.90Q45.00 11.85 44.58 11.48Q44.15 11.12 43.96 10.64Q43.77 10.17 44.04 9.71Q44.30 9.26 45.09 9.19Q45.88 9.11 46.83 9.84ZM50.62 3.51L49.57 4.14Q49.83 4.59 49.79 5.50L49.79 5.50Q49.77 11.40 49.89 11.88Q50.00 12.37 50.48 12.71L50.48 12.71L51.35 11.96Q50.98 11.46 50.91 10.78Q50.84 10.10 50.91 8.21L50.91 8.21Q51.82 7.25 52.95 7.23Q54.08 7.21 53.91 9.29L53.91 9.29Q53.87 11.34 54.01 11.82Q54.14 12.30 54.63 12.68L54.63 12.68L55.45 11.88Q55.06 11.82 54.96 11.01Q54.87 10.20 54.93 8.76L54.93 8.76Q54.98 7.88 54.79 7.35Q54.60 6.82 53.95 6.58Q53.29 6.33 52.68 6.50Q52.08 6.67 51.67 7.01Q51.26 7.36 50.94 7.55L50.94 7.55L50.91 4.85Q50.95 3.89 50.62 3.51L50.62 3.51Z"></path></g><!----><g data-v-423bf9ae="" id="7bbdab76-0c47-4551-95c9-df93850a214f" transform="matrix(3.9130434782608696,0,0,3.9130434782608696,0.39130486871884784,-15.652173913043477)" stroke="none" fill="black"><path d="M17.063 4l-.031.156-5 22-.188.844h3.094l.031-.156 5-22L20.157 4h-3.094zM10 7l-.406.313-9 7-.594.469v1.438l.594.469 9 7 .406.313v-3.781l-6.063-4.719L10 10.783V7.002zm12 0v3.781l6.063 4.719L22 20.219V24l.406-.313 9-7 .594-.469V14.78l-.594-.469-9-7L22 6.998z"></path></g><!----><g data-v-423bf9ae="" id="da65d1ef-8d38-452f-a467-fe853630b115" fill="black" transform="matrix(1.0146347323689373,0,0,1.0146347323689373,144.79125068355916,56.03277683031996)"><path d="M8.22 3.92L8.02 3.92L0.73 3.92L0.52 3.92L0.42 3.92L0.42 5.96L0.77 5.96C0.97 5.96 1.05 5.85 1.06 5.63C1.06 5.53 1.09 5.17 1.12 4.52L4.02 4.52L4.02 13.26C3.85 13.26 3.71 13.27 3.57 13.27C3.43 13.27 3.32 13.29 3.25 13.29L3.12 13.29C2.94 13.30 2.84 13.38 2.84 13.54L2.84 13.82L4.02 13.82L4.73 13.82L5.92 13.82L5.92 13.54C5.92 13.38 5.82 13.30 5.64 13.29L5.50 13.29C5.43 13.29 5.33 13.27 5.19 13.27C5.05 13.27 4.90 13.26 4.73 13.26L4.73 4.52L7.62 4.52C7.66 5.24 7.67 5.60 7.67 5.63C7.69 5.85 7.78 5.96 7.98 5.96L8.32 5.96L8.32 3.92ZM26.15 4.44C26.33 4.42 26.43 4.34 26.43 4.19L26.43 3.92L25.26 3.92L24.53 3.92L23.35 3.92L23.35 4.19C23.35 4.34 23.45 4.42 23.63 4.44L23.76 4.44C23.83 4.44 23.94 4.45 24.08 4.45C24.22 4.45 24.36 4.47 24.53 4.47L24.53 8.53L18.33 8.53L18.33 4.47C18.49 4.47 18.65 4.45 18.79 4.45C18.93 4.45 19.03 4.44 19.10 4.44L19.24 4.44C19.42 4.42 19.50 4.34 19.50 4.19L19.50 3.92L18.33 3.92L17.61 3.92L16.42 3.92L16.42 4.19C16.42 4.34 16.52 4.42 16.70 4.44L16.84 4.44C16.91 4.44 17.01 4.45 17.15 4.45C17.29 4.45 17.44 4.47 17.61 4.47L17.61 13.26C17.44 13.26 17.29 13.27 17.15 13.27C17.01 13.27 16.91 13.29 16.84 13.29L16.70 13.29C16.52 13.30 16.42 13.38 16.42 13.54L16.42 13.82L17.61 13.82L18.33 13.82L19.50 13.82L19.50 13.54C19.50 13.38 19.42 13.30 19.24 13.29L19.10 13.29C19.03 13.29 18.93 13.27 18.79 13.27C18.65 13.27 18.49 13.26 18.33 13.26L18.33 9.07L24.53 9.07L24.53 13.26C24.36 13.26 24.22 13.27 24.08 13.27C23.94 13.27 23.83 13.29 23.76 13.29L23.63 13.29C23.45 13.30 23.35 13.38 23.35 13.54L23.35 13.82L24.53 13.82L25.26 13.82L26.43 13.82L26.43 13.54C26.43 13.38 26.33 13.30 26.15 13.29L26.03 13.29C25.96 13.29 25.84 13.27 25.70 13.27C25.56 13.27 25.42 13.26 25.26 13.26L25.26 4.47C25.42 4.47 25.56 4.45 25.70 4.45C25.84 4.45 25.96 4.44 26.03 4.44ZM37.59 4.44C37.77 4.42 37.86 4.34 37.86 4.19L37.86 3.91L36.68 3.91L35.97 3.91L34.78 3.91L34.78 4.19C34.78 4.34 34.87 4.42 35.06 4.44L35.20 4.44C35.27 4.44 35.36 4.45 35.50 4.45C35.64 4.45 35.80 4.47 35.97 4.47L35.97 13.26C35.80 13.26 35.64 13.27 35.50 13.27C35.36 13.27 35.27 13.29 35.20 13.29L35.06 13.29C34.87 13.30 34.78 13.38 34.78 13.54L34.78 13.82L35.97 13.82L36.68 13.82L37.86 13.82L37.86 13.54C37.86 13.38 37.77 13.30 37.59 13.29L37.45 13.29C37.38 13.29 37.28 13.27 37.14 13.27C37.00 13.27 36.85 13.26 36.68 13.26L36.68 4.47C36.85 4.47 37.00 4.45 37.14 4.45C37.28 4.45 37.38 4.44 37.45 4.44ZM55.03 3.92L54.40 3.92L53.19 3.92L53.19 4.19C53.19 4.34 53.28 4.42 53.47 4.44L53.61 4.44C53.68 4.44 53.79 4.45 53.93 4.45C54.07 4.45 54.24 4.47 54.40 4.47L54.40 12.22C54.40 12.35 54.40 12.49 54.42 12.63L48.01 4.05C47.96 3.99 47.94 3.95 47.89 3.93C47.85 3.92 47.81 3.91 47.74 3.91L47.39 3.91L46.20 3.91L46.20 4.19C46.20 4.34 46.30 4.42 46.48 4.44L46.62 4.44C46.69 4.44 46.79 4.45 46.93 4.45C47.07 4.45 47.22 4.47 47.39 4.47L47.39 13.26C47.22 13.26 47.07 13.27 46.93 13.27C46.79 13.27 46.69 13.29 46.62 13.29L46.48 13.29C46.30 13.30 46.20 13.38 46.20 13.54L46.20 13.82L47.39 13.82L48.01 13.82L49.22 13.82L49.22 13.54C49.22 13.38 49.13 13.30 48.94 13.29L48.80 13.29C48.73 13.29 48.61 13.27 48.47 13.27C48.33 13.27 48.17 13.26 48.01 13.26L48.01 5.49C48.01 5.36 48.01 5.22 47.99 5.08L54.43 13.68C54.50 13.78 54.57 13.82 54.68 13.82L55.03 13.82L55.03 4.47C55.20 4.47 55.34 4.45 55.48 4.45C55.62 4.45 55.73 4.44 55.80 4.44L55.93 4.44C56.11 4.42 56.21 4.34 56.21 4.19L56.21 3.92ZM72.74 13.29L72.66 13.29L72.48 13.29C72.39 13.29 72.30 13.27 72.20 13.27L68.17 9.06C68.08 8.96 68.01 8.89 67.93 8.83C67.84 8.78 67.76 8.74 67.66 8.71C67.75 8.68 67.82 8.64 67.89 8.58C67.96 8.53 68.04 8.46 68.12 8.36L71.92 4.45L72.18 4.45C72.27 4.45 72.32 4.44 72.37 4.44L72.45 4.44C72.63 4.42 72.73 4.34 72.73 4.19L72.73 3.91L71.75 3.91L71.62 3.91L69.82 3.91L69.82 4.19C69.82 4.34 69.92 4.42 70.10 4.44L70.27 4.44C70.36 4.44 70.49 4.45 70.66 4.45L71.11 4.45L67.44 8.22C67.38 8.27 67.33 8.33 67.28 8.36C67.24 8.39 67.19 8.40 67.13 8.43C67.07 8.44 67.03 8.47 66.96 8.47C66.89 8.48 66.81 8.48 66.72 8.48L66.14 8.48L66.14 4.45C66.30 4.45 66.46 4.44 66.60 4.44C66.74 4.44 66.84 4.42 66.91 4.42L67.05 4.42C67.23 4.41 67.31 4.33 67.31 4.17L67.31 3.91L66.14 3.91L65.42 3.91L64.25 3.91L64.25 4.17C64.25 4.33 64.34 4.41 64.53 4.42L64.65 4.42C64.72 4.42 64.83 4.44 64.97 4.44C65.11 4.44 65.25 4.45 65.42 4.45L65.42 13.26C65.25 13.26 65.11 13.27 64.97 13.27C64.83 13.27 64.72 13.29 64.65 13.29L64.53 13.29C64.34 13.30 64.25 13.38 64.25 13.54L64.25 13.82L65.42 13.82L66.14 13.82L67.31 13.82L67.31 13.54C67.31 13.38 67.23 13.30 67.05 13.29L66.91 13.29C66.84 13.29 66.74 13.27 66.60 13.27C66.46 13.27 66.30 13.26 66.14 13.26L66.14 9.04L66.78 9.04C66.89 9.04 66.99 9.04 67.06 9.06C67.13 9.07 67.19 9.09 67.24 9.11C67.30 9.14 67.35 9.17 67.40 9.21C67.44 9.25 67.48 9.28 67.54 9.34L71.39 13.27C71.25 13.27 71.08 13.29 70.91 13.29L70.50 13.29L70.32 13.29C70.14 13.30 70.04 13.38 70.04 13.54L70.04 13.82L71.92 13.82L71.97 13.82L72.14 13.82L72.73 13.82L73.02 13.82L73.02 13.54C73.02 13.38 72.93 13.30 72.74 13.29ZM100.67 6.80C100.45 6.19 100.13 5.68 99.71 5.25C99.29 4.82 98.80 4.48 98.22 4.26C97.65 4.03 96.99 3.92 96.29 3.92L92.86 3.92L91.67 3.92L91.67 4.19C91.67 4.34 91.77 4.42 91.95 4.44L92.09 4.44C92.16 4.44 92.26 4.45 92.40 4.45C92.54 4.45 92.69 4.47 92.86 4.47L92.86 13.26C92.69 13.26 92.54 13.27 92.40 13.27C92.26 13.27 92.16 13.29 92.09 13.29L91.95 13.29C91.77 13.30 91.67 13.38 91.67 13.54L91.67 13.82L92.86 13.82L96.29 13.82C96.99 13.82 97.65 13.71 98.22 13.48C98.80 13.26 99.29 12.92 99.71 12.49C100.13 12.05 100.45 11.54 100.67 10.92C100.90 10.30 101.02 9.63 101.02 8.86C101.02 8.11 100.90 7.42 100.67 6.80ZM99.99 10.72C99.79 11.27 99.54 11.72 99.19 12.10C98.84 12.47 98.42 12.75 97.93 12.95C97.44 13.15 96.89 13.24 96.29 13.24L93.58 13.24L93.58 4.49L96.29 4.49C96.89 4.49 97.44 4.59 97.93 4.79C98.42 4.98 98.84 5.26 99.19 5.64C99.54 6.02 99.79 6.47 99.99 7.01C100.18 7.56 100.28 8.18 100.28 8.86C100.28 9.56 100.18 10.18 99.99 10.72ZM112.13 4.44C112.31 4.42 112.39 4.34 112.39 4.19L112.39 3.91L111.22 3.91L110.50 3.91L109.31 3.91L109.31 4.19C109.31 4.34 109.41 4.42 109.59 4.44L109.73 4.44C109.80 4.44 109.90 4.45 110.04 4.45C110.18 4.45 110.33 4.47 110.50 4.47L110.50 13.26C110.33 13.26 110.18 13.27 110.04 13.27C109.90 13.27 109.80 13.29 109.73 13.29L109.59 13.29C109.41 13.30 109.31 13.38 109.31 13.54L109.31 13.82L110.50 13.82L111.22 13.82L112.39 13.82L112.39 13.54C112.39 13.38 112.31 13.30 112.13 13.29L111.99 13.29C111.92 13.29 111.82 13.27 111.68 13.27C111.54 13.27 111.38 13.26 111.22 13.26L111.22 4.47C111.38 4.47 111.54 4.45 111.68 4.45C111.82 4.45 111.92 4.44 111.99 4.44ZM127.86 3.92L127.51 3.92L121.93 3.92L120.74 3.92L120.74 4.19C120.74 4.34 120.83 4.42 121.02 4.44L121.16 4.44C121.23 4.44 121.32 4.45 121.46 4.45C121.60 4.45 121.76 4.47 121.93 4.47L121.93 13.26C121.76 13.26 121.60 13.27 121.46 13.27C121.32 13.27 121.23 13.29 121.16 13.29L121.02 13.29C120.83 13.30 120.74 13.38 120.74 13.54L120.74 13.82L121.93 13.82L122.64 13.82L123.82 13.82L123.82 13.54C123.82 13.38 123.73 13.30 123.55 13.29L123.41 13.29C123.34 13.29 123.24 13.27 123.10 13.27C122.96 13.27 122.81 13.26 122.64 13.26L122.64 9.27L126.34 9.27L126.34 8.67L122.64 8.67L122.64 4.51L127.25 4.51C127.27 5.18 127.30 5.56 127.30 5.63C127.32 5.85 127.41 5.96 127.61 5.96L127.95 5.96L127.95 3.92ZM143.19 3.92L142.84 3.92L137.26 3.92L136.07 3.92L136.07 4.19C136.07 4.34 136.16 4.42 136.35 4.44L136.49 4.44C136.56 4.44 136.65 4.45 136.79 4.45C136.93 4.45 137.09 4.47 137.26 4.47L137.26 13.26C137.09 13.26 136.93 13.27 136.79 13.27C136.65 13.27 136.56 13.29 136.49 13.29L136.35 13.29C136.16 13.30 136.07 13.38 136.07 13.54L136.07 13.82L137.26 13.82L137.97 13.82L139.15 13.82L139.15 13.54C139.15 13.38 139.06 13.30 138.88 13.29L138.74 13.29C138.67 13.29 138.57 13.27 138.43 13.27C138.29 13.27 138.14 13.26 137.97 13.26L137.97 9.27L141.67 9.27L141.67 8.67L137.97 8.67L137.97 4.51L142.58 4.51C142.60 5.18 142.63 5.56 142.63 5.63C142.65 5.85 142.74 5.96 142.94 5.96L143.28 5.96L143.28 3.92ZM152.59 3.92L151.40 3.92L151.40 4.19C151.40 4.34 151.49 4.42 151.68 4.44L151.82 4.44C151.89 4.44 151.98 4.45 152.12 4.45C152.26 4.45 152.42 4.47 152.59 4.47L152.59 13.26C152.42 13.26 152.26 13.27 152.12 13.27C151.98 13.27 151.89 13.29 151.82 13.29L151.68 13.29C151.49 13.30 151.41 13.38 151.41 13.54L151.41 13.82L152.59 13.82L158.52 13.82L158.52 13.22L158.52 11.76L158.17 11.76C157.98 11.76 157.89 11.89 157.88 12.11C157.88 12.14 157.86 12.19 157.86 12.29C157.86 12.39 157.86 12.53 157.85 12.74C157.84 12.95 157.82 13.09 157.82 13.22L153.30 13.22L153.30 9.09L157.25 9.09L157.25 8.51L153.30 8.51L153.30 4.51L157.82 4.51C157.85 5.12 157.88 5.50 157.88 5.63C157.89 5.85 157.98 5.96 158.17 5.96L158.52 5.96L158.52 4.51L158.52 3.92ZM175.10 13.29L175.00 13.29L174.82 13.29C174.73 13.29 174.65 13.27 174.57 13.27L171.60 9.53C171.51 9.42 171.40 9.32 171.29 9.25C171.72 9.21 172.12 9.11 172.47 8.96C172.82 8.81 173.10 8.61 173.35 8.37C173.59 8.13 173.78 7.85 173.91 7.55C174.03 7.24 174.10 6.89 174.10 6.51C174.10 5.66 173.82 5.03 173.26 4.58C172.70 4.14 171.85 3.92 170.70 3.92L168.29 3.92L167.12 3.92L167.12 4.19C167.12 4.34 167.20 4.42 167.38 4.44L167.52 4.44C167.59 4.44 167.69 4.45 167.83 4.45C167.97 4.45 168.13 4.47 168.29 4.47L168.29 13.26C168.13 13.26 167.97 13.27 167.83 13.27C167.69 13.27 167.59 13.29 167.52 13.29L167.38 13.29C167.20 13.30 167.10 13.38 167.10 13.54L167.10 13.82L168.29 13.82L169.01 13.82L170.18 13.82L170.18 13.54C170.18 13.38 170.09 13.30 169.90 13.29L169.76 13.29C169.69 13.29 169.60 13.27 169.46 13.27C169.32 13.27 169.18 13.26 169.01 13.26L169.01 9.34L170.18 9.34C170.38 9.34 170.52 9.35 170.60 9.39C170.69 9.44 170.77 9.52 170.86 9.62L174.03 13.64C174.09 13.71 174.13 13.75 174.19 13.78C174.24 13.80 174.31 13.82 174.38 13.82L174.45 13.82L175.00 13.82L175.36 13.82L175.36 13.54C175.36 13.38 175.28 13.30 175.10 13.29ZM170.60 8.81L169.01 8.81L169.01 4.48L170.70 4.48C171.58 4.48 172.26 4.66 172.72 5.00C173.18 5.33 173.40 5.87 173.40 6.57C173.40 6.92 173.35 7.21 173.22 7.49C173.10 7.77 172.90 7.99 172.66 8.19C172.42 8.39 172.13 8.55 171.78 8.65C171.43 8.75 171.04 8.81 170.60 8.81ZM184.76 3.92L183.57 3.92L183.57 4.19C183.57 4.34 183.67 4.42 183.85 4.44L183.99 4.44C184.06 4.44 184.16 4.45 184.30 4.45C184.44 4.45 184.59 4.47 184.76 4.47L184.76 13.26C184.59 13.26 184.44 13.27 184.30 13.27C184.16 13.27 184.06 13.29 183.99 13.29L183.85 13.29C183.67 13.30 183.58 13.38 183.58 13.54L183.58 13.82L184.76 13.82L190.69 13.82L190.69 13.22L190.69 11.76L190.34 11.76C190.15 11.76 190.06 11.89 190.05 12.11C190.05 12.14 190.04 12.19 190.04 12.29C190.04 12.39 190.04 12.53 190.02 12.74C190.01 12.95 189.99 13.09 189.99 13.22L185.47 13.22L185.47 9.09L189.42 9.09L189.42 8.51L185.47 8.51L185.47 4.51L189.99 4.51C190.02 5.12 190.05 5.50 190.05 5.63C190.06 5.85 190.15 5.96 190.34 5.96L190.69 5.96L190.69 4.51L190.69 3.92ZM208.11 3.92L207.48 3.92L206.26 3.92L206.26 4.19C206.26 4.34 206.36 4.42 206.54 4.44L206.68 4.44C206.75 4.44 206.86 4.45 207.00 4.45C207.14 4.45 207.31 4.47 207.48 4.47L207.48 12.22C207.48 12.35 207.48 12.49 207.49 12.63L201.08 4.05C201.04 3.99 201.01 3.95 200.97 3.93C200.93 3.92 200.89 3.91 200.82 3.91L200.47 3.91L199.28 3.91L199.28 4.19C199.28 4.34 199.37 4.42 199.56 4.44L199.70 4.44C199.77 4.44 199.86 4.45 200.00 4.45C200.14 4.45 200.30 4.47 200.47 4.47L200.47 13.26C200.30 13.26 200.14 13.27 200.00 13.27C199.86 13.27 199.77 13.29 199.70 13.29L199.56 13.29C199.37 13.30 199.28 13.38 199.28 13.54L199.28 13.82L200.47 13.82L201.08 13.82L202.30 13.82L202.30 13.54C202.30 13.38 202.20 13.30 202.02 13.29L201.88 13.29C201.81 13.29 201.68 13.27 201.54 13.27C201.40 13.27 201.25 13.26 201.08 13.26L201.08 5.49C201.08 5.36 201.08 5.22 201.07 5.08L207.51 13.68C207.58 13.78 207.65 13.82 207.76 13.82L208.11 13.82L208.11 4.47C208.28 4.47 208.42 4.45 208.56 4.45C208.70 4.45 208.81 4.44 208.88 4.44L209.01 4.44C209.19 4.42 209.29 4.34 209.29 4.19L209.29 3.92ZM224.84 3.92L224.64 3.92L217.35 3.92L217.14 3.92L217.04 3.92L217.04 5.96L217.39 5.96C217.59 5.96 217.67 5.85 217.69 5.63C217.69 5.53 217.71 5.17 217.74 4.52L220.64 4.52L220.64 13.26C220.47 13.26 220.33 13.27 220.19 13.27C220.05 13.27 219.94 13.29 219.87 13.29L219.74 13.29C219.56 13.30 219.46 13.38 219.46 13.54L219.46 13.82L220.64 13.82L221.35 13.82L222.54 13.82L222.54 13.54C222.54 13.38 222.45 13.30 222.26 13.29L222.12 13.29C222.05 13.29 221.96 13.27 221.82 13.27C221.68 13.27 221.52 13.26 221.35 13.26L221.35 4.52L224.24 4.52C224.28 5.24 224.29 5.60 224.29 5.63C224.31 5.85 224.41 5.96 224.60 5.96L224.94 5.96L224.94 3.92Z"></path></g></svg>