<svg data-v-fde0c5aa="" xmlns="http://www.w3.org/2000/svg" viewBox="0 0 300 300" class="font"><!----><defs data-v-fde0c5aa=""><!----></defs><rect data-v-fde0c5aa="" fill="#3E3734" x="0" y="0" width="300px" height="300px" class="logo-background-square"></rect><defs data-v-fde0c5aa=""><!----></defs><g data-v-fde0c5aa="" id="cf49bfd1-9258-4d9e-9d20-b8c2312e5b05" fill="#C67D4E" transform="matrix(3.9927024359552354,0,0,3.9927024359552354,38.60464450025588,112.80797753254716)"><path d="M3.91 3.52Q3.39 3.50 2.94 3.63Q2.48 3.75 1.79 4.34Q1.11 4.94 0.86 5.93Q0.62 6.93 1.64 7.74L1.64 7.74Q0.07 9.06 0.41 10.71L0.41 10.71Q0.79 12.27 3.17 12.74L3.17 12.74Q5.77 11.18 6.14 9.85Q6.51 8.52 5.29 7.73L5.29 7.73L4.34 8.69Q5.53 9.50 5.09 10.55Q4.66 11.61 3.74 11.56Q2.82 11.50 1.79 10.64Q0.76 9.78 1.91 7.94L1.91 7.94Q2.60 8.14 2.94 8.18L2.94 8.18L3.87 7.17L3.75 7.02Q3.18 7.46 2.29 6.80Q1.40 6.14 1.56 5.47Q1.72 4.80 2.34 4.50Q2.97 4.20 3.70 4.48Q4.43 4.76 4.25 5.35L4.25 5.35L4.40 5.46L5.31 4.44Q5.22 4.16 4.82 3.85Q4.42 3.53 3.91 3.52ZM7.04 7.46Q7.63 6.99 7.52 9.16L7.52 9.16L7.55 12.44Q7.53 13.15 7.37 13.57Q7.20 13.99 6.23 14.88L6.23 14.88L6.39 15.12Q7.90 13.97 8.31 13.17Q8.72 12.37 8.67 11.26Q8.63 10.14 8.62 8.88Q8.61 7.63 8.60 7.24Q8.58 6.84 8.20 6.44L8.20 6.44L6.92 7.27L7.04 7.46ZM7.80 3.68L7.07 4.38Q7.62 4.68 7.74 5.35L7.74 5.35Q8.74 4.81 8.52 4.32Q8.30 3.83 7.80 3.68L7.80 3.68ZM12.43 6.54Q11.42 6.56 10.57 7.23Q9.73 7.90 10.15 8.74L10.15 8.74L11.27 8.07Q11.05 6.90 12.47 7.03Q13.90 7.15 13.71 8.89L13.71 8.89Q12.61 8.39 11.73 8.61Q10.85 8.82 10.11 9.71L10.11 9.71Q9.52 10.58 9.74 11.18Q9.95 11.79 10.44 12.23Q10.92 12.67 11.52 12.71Q12.11 12.76 12.52 12.48Q12.93 12.20 13.73 11.49L13.73 11.49Q13.79 12.36 14.29 12.76L14.29 12.76L15.40 11.80L15.31 11.64Q14.75 12.10 14.68 10.58L14.68 10.58L14.69 8.14Q14.66 7.23 14.05 6.88Q13.45 6.53 12.43 6.54ZM13.41 9.84L13.41 9.84L13.69 9.47L13.69 11.08Q12.82 11.95 12.20 11.90Q11.58 11.85 11.16 11.48Q10.73 11.12 10.54 10.64Q10.35 10.17 10.62 9.71Q10.88 9.26 11.67 9.19Q12.46 9.11 13.41 9.84ZM18.61 6.54Q17.60 6.56 16.75 7.23Q15.91 7.90 16.33 8.74L16.33 8.74L17.45 8.07Q17.23 6.90 18.65 7.03Q20.08 7.15 19.89 8.89L19.89 8.89Q18.79 8.39 17.91 8.61Q17.03 8.82 16.29 9.71L16.29 9.71Q15.70 10.58 15.92 11.18Q16.13 11.79 16.61 12.23Q17.10 12.67 17.69 12.71Q18.29 12.76 18.70 12.48Q19.11 12.20 19.91 11.49L19.91 11.49Q19.97 12.36 20.47 12.76L20.47 12.76L21.58 11.80L21.49 11.64Q20.92 12.10 20.86 10.58L20.86 10.58L20.87 8.14Q20.84 7.23 20.23 6.88Q19.63 6.53 18.61 6.54ZM19.59 9.84L19.59 9.84L19.87 9.47L19.87 11.08Q19.00 11.95 18.38 11.90Q17.76 11.85 17.34 11.48Q16.91 11.12 16.72 10.64Q16.53 10.17 16.80 9.71Q17.06 9.26 17.85 9.19Q18.63 9.11 19.59 9.84ZM22.68 6.50L22.00 7.53L22.08 7.68Q22.49 7.38 25.30 7.45L25.30 7.45Q22.31 11.59 21.83 12.55L21.83 12.55L21.96 12.65Q22.78 12.50 24.29 12.68Q25.81 12.87 26.15 12.49Q26.50 12.11 26.67 11.31L26.67 11.31Q25.95 11.86 23.15 11.44L23.15 11.44L26.41 6.69L26.29 6.50L22.68 6.50ZM33.17 3.60Q32.59 3.74 32.10 4.16Q31.62 4.59 31.25 5.09Q30.89 5.59 30.87 6.30Q30.86 7.01 31.33 7.49Q31.80 7.97 33.29 8.54Q34.77 9.11 34.82 9.93Q34.86 10.75 34.50 11.20Q34.15 11.66 33.50 11.62Q32.85 11.57 32.20 11.14Q31.54 10.71 31.26 10.07Q30.99 9.43 31.29 9.00L31.29 9.00L31.12 8.87L30.27 9.94Q30.27 10.58 30.64 11.21Q31.01 11.85 31.83 12.33Q32.65 12.80 33.46 12.65Q34.26 12.51 35.08 11.36Q35.90 10.21 35.85 9.42Q35.81 8.63 35.28 8.14Q34.75 7.65 33.37 7.23Q31.99 6.81 31.84 5.79Q31.68 4.78 32.36 4.58Q33.03 4.39 33.71 4.80Q34.39 5.21 34.25 5.72L34.25 5.72L34.36 5.80L35.30 4.92Q35.19 4.22 34.47 3.84Q33.76 3.46 33.17 3.60ZM37.78 3.51L36.74 4.14Q36.99 4.59 36.96 5.50L36.96 5.50Q36.93 11.40 37.05 11.88Q37.17 12.37 37.64 12.71L37.64 12.71L38.51 11.96Q38.14 11.46 38.07 10.78Q38.00 10.10 38.08 8.21L38.08 8.21Q38.98 7.25 40.11 7.23Q41.24 7.21 41.07 9.29L41.07 9.29Q41.04 11.34 41.17 11.82Q41.30 12.30 41.79 12.68L41.79 12.68L42.61 11.88Q42.22 11.82 42.12 11.01Q42.03 10.20 42.10 8.76L42.10 8.76Q42.14 7.88 41.95 7.35Q41.76 6.82 41.11 6.58Q40.46 6.33 39.85 6.50Q39.24 6.67 38.83 7.01Q38.42 7.36 38.10 7.55L38.10 7.55L38.08 4.85Q38.11 3.89 37.78 3.51L37.78 3.51ZM45.86 6.54Q44.84 6.56 43.99 7.23Q43.15 7.90 43.57 8.74L43.57 8.74L44.69 8.07Q44.47 6.90 45.89 7.03Q47.32 7.15 47.13 8.89L47.13 8.89Q46.03 8.39 45.15 8.61Q44.27 8.82 43.53 9.71L43.53 9.71Q42.94 10.58 43.16 11.18Q43.37 11.79 43.86 12.23Q44.34 12.67 44.94 12.71Q45.53 12.76 45.94 12.48Q46.35 12.20 47.15 11.49L47.15 11.49Q47.22 12.36 47.71 12.76L47.71 12.76L48.82 11.80L48.73 11.64Q48.17 12.10 48.10 10.58L48.10 10.58L48.11 8.14Q48.08 7.23 47.48 6.88Q46.87 6.53 45.86 6.54ZM46.83 9.84L46.83 9.84L47.11 9.47L47.11 11.08Q46.25 11.95 45.62 11.90Q45.00 11.85 44.58 11.48Q44.15 11.12 43.96 10.64Q43.77 10.17 44.04 9.71Q44.30 9.26 45.09 9.19Q45.88 9.11 46.83 9.84ZM50.62 3.51L49.57 4.14Q49.83 4.59 49.79 5.50L49.79 5.50Q49.77 11.40 49.89 11.88Q50.00 12.37 50.48 12.71L50.48 12.71L51.35 11.96Q50.98 11.46 50.91 10.78Q50.84 10.10 50.91 8.21L50.91 8.21Q51.82 7.25 52.95 7.23Q54.08 7.21 53.91 9.29L53.91 9.29Q53.87 11.34 54.01 11.82Q54.14 12.30 54.63 12.68L54.63 12.68L55.45 11.88Q55.06 11.82 54.96 11.01Q54.87 10.20 54.93 8.76L54.93 8.76Q54.98 7.88 54.79 7.35Q54.60 6.82 53.95 6.58Q53.29 6.33 52.68 6.50Q52.08 6.67 51.67 7.01Q51.26 7.36 50.94 7.55L50.94 7.55L50.91 4.85Q50.95 3.89 50.62 3.51L50.62 3.51Z"></path></g><!----><!----></svg>